# xmcd CD database file
# Copyright (C) 1993-1998 Ti Kan
#
# Track frame offsets:
#	183
#	10930
#	22763
#	34238
#	46338
#	58453
#	76268
#	88645
#	101980
#	113875
#	126860
#	137768
#
# Disc length: 2015 seconds
#
# Revision: 1
# Processed by: cddbd v1.4b41PL1 Copyright (c) Steve Scherf et al.
# Submitted via: NotifyCDPlayer(CDDB) 1.51.3
#
DISCID=9d07dd0c
DTITLE=Sam and Dave - Soul of Sam and Dave
DYEAR=1900
DGENRE=
TTITLE0=Sweet Soul Music
TTITLE1=Soul Man
TTITLE2=Land of 1000 Dances
TTITLE3=Hold On I'm Comin
TTITLE4=Funkey Street
TTITLE5=Mustang Sally
TTITLE6=I Thank You
TTITLE7=Funkey Broadway
TTITLE8=Respect
TTITLE9=I'll Be Doggone
TTITLE10=Soul Sister, Brown Sugar
TTITLE11=634-5789
EXTD=
EXTT0=
EXTT1=
EXTT2=
EXTT3=
EXTT4=
EXTT5=
EXTT6=
EXTT7=
EXTT8=
EXTT9=
EXTT10=
EXTT11=
PLAYORDER=
